{"title":"The Experiment DVDSCR AC3 XViD - IMAGiNE[ExtraTorrent]","uid":5778130,"size":1389775912,"categoryP":"video","categoryS":"movies","magnet":"?xt=urn:btih:bd20b48d7b5220513fb5eb498f437375b59c6a65&amp;dn=The+Experiment+DVDSCR+AC3+XViD+-+IMAGiNE%5BExtraTorrent%5D&amp;tr=udp%3A%2F%2Ftracker.openbittorrent.com%3A80&amp;tr=udp%3A%2F%2Fopen.demonii.com%3A1337&amp;tr=udp%3A%2F%2Ftracker.coppersurfer.tk%3A6969&amp;tr=udp%3A%2F%2Fexodus.desync.com%3A6969","seeders":0,"leechers":0,"uploader":"SaM","files":96,"time":1282328930,"description":"extratorrent.com\n\n\n\n\n\n                          Another Fine Release Brought to you from - IMAGiNE                  \n                                               \n\n********************************************************************************************************************                                \n                        The Experiment DVDSCR AC3 XViD - IMAGiNE\n********************************************************************************************************************\n\nRipper ...........: IMAGiNE                                        IMDB Rating.......:7.1/10                            \nVideo Codec.......: XVID                                         Release Date......:20/08/10\nAudio Codec.......:AC3                                           Theatre Date......:12/08/10\nAudio Bitrate.....:192                                              Runtime.......:1h 36mn\nSubtitles.........:NIL                                                 Language..........:ENGLISH\nResolution...... 720 x 384                                      IMDb URL..........:http://www.imdb.com/title/tt0997152/\n\n\nDETAILS:\n\nVideo\nID                               : 0\nFormat                           : MPEG-4 Visual\nFormat profile                   : Advanced Simple@L5\nFormat settings, BVOP            : Yes\nFormat settings, QPel            : No\nFormat settings, GMC             : No warppoints\nFormat settings, Matrix          : Default (MPEG)\nMuxing mode                      : Packed bitstream\nCodec ID                         : XVID\nCodec ID/Hint                    : XviD\nDuration                         : 1h 36mn\nBit rate                         : 1 702 Kbps\nWidth                            : 720 pixels\nHeight                           : 384 pixels\nDisplay aspect ratio             : 1.875\nFrame rate                       : 23.976 fps\nResolution                       : 24 bits\nColorimetry                      : 4:2:0\nScan type                        : Progressive\nBits/(Pixel*Frame)               : 0.257\nStream size                      : 1.14 GiB (89%)\nWriting library                  : XviD 1.2.1 (UTC 2008-12-04)\n\nAudio\nID                               : 1\nFormat                           : AC-3\nFormat/Info                      : Audio Coding 3\nCodec ID                         : 2000\nDuration                         : 1h 36mn\nBit rate mode                    : Constant\nBit rate                         : 192 Kbps\nChannel(s)                       : 2 channels\nChannel positions                : L R\nSampling rate                    : 48.0 KHz\nStream size                      : 132 MiB (10%)\nAlignment                        : Aligned on interleaves\nInterleave, duration             : 42 ms (1.00 video frame)\nInterleave, preload duration     : 512 ms\n\n\n\nSOURCES:\n\nVIDEO:The Experiment DVDSCR VOBS .............. Transformerz,Thanks\nAUDIO:The Experiment DVDSCR VOBS .............. Transformerz,Thanks\n\nNOTES:\n\nIMAGiNE bringing you another release.....The Experiment\n\nOk source for this was good,needed a few issues sorted out,but overall a nice dvdscreener.\nFor this we did a script which contained.....crop,resize,white balance,rgb eq,sharpness and also fixed\nthe bad ivtc.\nAudio was just kept how it was on the dvdr..\n\nEnjoy folks\n\n\nSCREENS:\n &lt;a href=&quot;\nhttp://imagine.takagari.com/EXPERIMENT%20DVDSCR/vlcsnap-114380.png&quot; rel=&quot;nofollow&quot; target=&quot;_NEW&quot;&gt;\nhttp://imagine.takagari.com/EXPERIMENT%20DVDSCR/vlcsnap-114380.png&lt;/a&gt; &lt;a href=&quot;\nhttp://imagine.takagari.com/EXPERIMENT%20DVDSCR/vlcsnap-114564.png&quot; rel=&quot;nofollow&quot; target=&quot;_NEW&quot;&gt;\nhttp://imagine.takagari.com/EXPERIMENT%20DVDSCR/vlcsnap-114564.png&lt;/a&gt; &lt;a href=&quot;\nhttp://imagine.takagari.com/EXPERIMENT%20DVDSCR/vlcsnap-114817.png&quot; rel=&quot;nofollow&quot; target=&quot;_NEW&quot;&gt;\nhttp://imagine.takagari.com/EXPERIMENT%20DVDSCR/vlcsnap-114817.png&lt;/a&gt; &lt;a href=&quot;\nhttp://imagine.takagari.com/EXPERIMENT%20DVDSCR/vlcsnap-114987.png&quot; rel=&quot;nofollow&quot; target=&quot;_NEW&quot;&gt;\nhttp://imagine.takagari.com/EXPERIMENT%20DVDSCR/vlcsnap-114987.png&lt;/a&gt;\n\nGREETS:\n\nFLAWL3SS,ViSiON,FUSiON,Rx,SecretMyth,BirdFlu,ELEKTRI4KA and Autotron\nAnd to all the other p2p grps past and present\n\nLooking for these,syncers,cammers,silver supplier.....Have anything to offer????......\nContact us &lt;a class=&quot;__cf_email__&quot; href=&quot;/cdn-cgi/l/email-protection&quot; data-cfemail=&quot;4b22262a2c22252e2c39243e3b0b233e3823262a222765282426&quot;&gt;[email&amp;#160;protected]&lt;/a&gt;&lt;script data-cfhash='f9e31' type=&quot;text/javascript&quot;&gt;\n/* &lt;![CDATA[ */!function(){try{var t=&quot;currentScript&quot;in document?document.currentScript:function(){for(var t=document.getElementsByTagName(&quot;script&quot;),e=t.length;e--;)if(t[e].getAttribute(&quot;data-cfhash&quot;))return t[e]}();if(t&amp;&amp;t.previousSibling){var e,r,n,i,c=t.previousSibling,a=c.getAttribute(&quot;data-cfemail&quot;);if(a){for(e=&quot;&quot;,r=parseInt(a.substr(0,2),16),n=2;a.length-n;n+=2)i=parseInt(a.substr(n,2),16)^r,e+=String.fromCharCode(i);e=document.createTextNode(e),c.parentNode.replaceChild(e,c)}t.parentNode.removeChild(t);}}catch(u){}}()/* ]]&gt; */&lt;/script&gt;\n","torrent":{"xt":"urn:btih:bd20b48d7b5220513fb5eb498f437375b59c6a65","amp;dn":"The+Experiment+DVDSCR+AC3+XViD+-+IMAGiNE%5BExtraTorrent%5D","amp;tr":["udp%3A%2F%2Ftracker.openbittorrent.com%3A80","udp%3A%2F%2Fopen.demonii.com%3A1337","udp%3A%2F%2Ftracker.coppersurfer.tk%3A6969","udp%3A%2F%2Fexodus.desync.com%3A6969"],"infoHash":"bd20b48d7b5220513fb5eb498f437375b59c6a65","infoHashBuffer":{"type":"Buffer","data":[189,32,180,141,123,82,32,81,63,181,235,73,143,67,115,117,181,156,106,101]},"announce":[],"urlList":[]}}